<svg width="55" height="62" viewBox="0 0 55 62" fill="none" xmlns="http://www.w3.org/2000/svg">
<path d="M36.0864 45.8834L20.2153 43.1003L28.8332 9.82145L6.85864 4.15857L7.93319 6.10352e-05L34.077 6.72675L25.5451 39.6725L36.8278 41.6496L36.0864 45.8834Z" fill="black"/>
<path d="M8.63159 35.5247C7.3099 35.5247 5.76254 35.1808 3.98954 34.2245C-2.04944 30.9793 0.475757 20.986 0.787377 19.8577L4.93514 20.986L2.86126 20.4165L4.93514 20.9753C4.24743 23.5005 3.62419 29.1418 6.02044 30.4313C8.39519 31.71 9.5772 31.0975 9.96404 30.8934C12.7686 29.4427 14.0688 23.5434 14.3052 21.5878L18.5712 22.0928C18.453 23.0921 17.271 31.9357 11.952 34.708C11.1138 35.1378 9.99627 35.5139 8.63159 35.5139V35.5247Z" fill="black"/>
<path d="M44.6828 38.0283C43.3611 38.0283 41.8137 37.6845 40.0407 36.7281C34.0017 33.483 36.5377 23.4897 36.8386 22.3614L40.9863 23.4897L38.9124 22.9202L40.9863 23.4789C40.2986 26.0041 39.6754 31.6455 42.0716 32.935C44.4464 34.2137 45.6284 33.6012 46.0152 33.397C48.8198 31.9464 50.12 26.0471 50.3564 24.0914L54.6224 24.5965C54.5042 25.5958 53.3222 34.4393 48.0031 37.2117C47.165 37.6415 46.0475 38.0176 44.6828 38.0176V38.0283Z" fill="black"/>
<path d="M26.2543 61.1098C13.4242 61.1098 5.95609 53.5987 5.84863 53.4805L8.93259 50.4932C9.49136 51.0627 22.9662 64.3979 45.6822 50.7726L47.8958 54.4583C39.6217 59.4227 32.3363 61.1098 26.2543 61.1098Z" fill="black"/>
</svg>
