<svg width="97" height="23" viewBox="0 0 97 23" fill="none" xmlns="http://www.w3.org/2000/svg">
<path d="M40.7292 16.3437C41.4299 16.2856 41.8789 16.1153 42.0841 15.8366C42.2854 15.5579 42.386 14.9888 42.386 14.1294V9.08537C42.386 8.27631 42.1925 7.66081 41.8092 7.23886C41.426 6.81691 40.8686 6.60787 40.1331 6.60787C39.595 6.60787 39.1188 6.70852 38.7085 6.90594C38.2982 7.10337 37.8762 7.42467 37.4388 7.87372C37.4736 8.26083 37.4891 8.56665 37.4891 8.78343V14.1333C37.4891 14.9849 37.5936 15.5501 37.8065 15.8327C38.0156 16.1153 38.4724 16.2856 39.173 16.3437V17.114H33.5599V16.3437C34.2606 16.2856 34.7096 16.1153 34.9148 15.8366C35.1161 15.5579 35.2168 14.9888 35.2168 14.1294V9.00795C35.2168 8.22599 35.0387 7.62597 34.6787 7.2195C34.3187 6.80917 33.7999 6.60787 33.1186 6.60787C32.5689 6.60787 32.0812 6.72013 31.6515 6.94853C31.2218 7.17692 30.7689 7.56016 30.2966 8.09824V14.3965C30.2966 15.1398 30.4127 15.6353 30.645 15.883C30.8773 16.1308 31.3728 16.2856 32.1315 16.3437V17.114H26.1777V16.3437C26.9442 16.2856 27.4436 16.1308 27.6758 15.883C27.9081 15.6353 28.0242 15.1398 28.0242 14.3965V8.04792C28.0242 7.30467 27.9042 6.82078 27.672 6.58851C27.4358 6.35625 26.9403 6.24011 26.1816 6.24011V5.57041L29.5688 4.68393H30.3005V7.01046H30.3276C30.8153 6.16656 31.3573 5.54332 31.9534 5.14072C32.5496 4.73426 33.258 4.53296 34.0825 4.53296C34.9071 4.53296 35.5961 4.742 36.1419 5.16008C36.6916 5.57816 37.0749 6.18592 37.2917 6.98724C37.7794 6.15108 38.3214 5.53557 38.9175 5.13298C39.5137 4.73426 40.2221 4.53296 41.0466 4.53296C43.4583 4.53296 44.6622 6.02333 44.6622 9.00795V14.1294C44.6622 14.9888 44.7706 15.5579 44.9913 15.8366C45.2119 16.1153 45.692 16.2818 46.4313 16.3437V17.114H40.7292V16.3437Z" fill="black"/>
<path d="M52.3772 17.4818C50.6739 17.4818 49.3229 16.9166 48.3164 15.7863C47.3138 14.6559 46.8105 13.1462 46.8105 11.2609C46.8105 9.22861 47.306 7.59887 48.2971 6.37173C49.2881 5.14459 50.6468 4.53296 52.3733 4.53296C53.8985 4.53296 55.0715 4.97814 55.8883 5.86849C56.7051 6.75884 57.1077 8.02082 57.0883 9.65443H49.0326C49.0171 9.78992 49.0055 10.0144 49.0055 10.3241C49.0055 11.7216 49.3539 12.8481 50.0545 13.692C50.7552 14.5398 51.6881 14.9617 52.8611 14.9617C53.6198 14.9617 54.2934 14.7798 54.8857 14.412C55.4741 14.0443 55.9038 13.5449 56.1747 12.9139L57.0109 13.1539C56.7322 14.6211 56.2212 15.7088 55.4741 16.4172C54.727 17.1257 53.6934 17.4779 52.3694 17.4779L52.3772 17.4818ZM49.1642 8.54342H54.5528C54.5528 7.63371 54.3515 6.91369 53.9527 6.38722C53.554 5.86075 52.9346 5.59751 52.0985 5.59751C51.3668 5.59751 50.7397 5.84913 50.2287 6.35625C49.7139 6.86336 49.3616 7.59113 49.168 8.54342H49.1642Z" fill="black"/>
<path d="M58.3105 16.3437C59.077 16.2856 59.5764 16.1308 59.8087 15.883C60.0409 15.6353 60.1571 15.1398 60.1571 14.3965V8.04792C60.1571 7.30467 60.0371 6.82078 59.8048 6.58851C59.5687 6.35625 59.0732 6.24012 58.3144 6.24012V5.57041L61.7016 4.68393H62.4333V7.01046H62.4604C62.8901 6.22463 63.4359 5.61687 64.0978 5.1833C64.7598 4.74974 65.5069 4.53296 66.3431 4.53296C67.5044 4.53296 68.4064 4.89297 69.0412 5.613C69.6761 6.33302 69.9974 7.38983 69.9974 8.77956V14.3927C69.9974 15.1359 70.1058 15.6314 70.3187 15.8792C70.5355 16.1269 71.0039 16.2818 71.7278 16.3398V17.1102H66.0876V16.3398C66.7805 16.2818 67.2218 16.1308 67.4231 15.883C67.6205 15.6391 67.7212 15.1398 67.7212 14.3927V9.20925C67.7212 7.47113 66.9586 6.604 65.4334 6.604C64.3108 6.604 63.312 7.10337 62.4371 8.09437V14.3927C62.4371 15.1359 62.5533 15.6314 62.7855 15.8792C63.0178 16.1269 63.5133 16.2818 64.272 16.3398V17.1102H58.3183V16.3398L58.3105 16.3437Z" fill="black"/>
<path d="M76.6097 17.4818C75.5142 17.4818 74.6354 17.118 73.9812 16.3941C73.3231 15.6702 72.9941 14.6172 72.9941 13.2314V7.2002C72.9941 6.68535 72.8934 6.31372 72.696 6.0892C72.4986 5.8608 72.1308 5.69047 71.5889 5.57047V4.83883H75.2703V12.5385C75.2703 13.6107 75.4484 14.354 75.8084 14.7759C76.1684 15.1979 76.7142 15.4069 77.4458 15.4069C78.491 15.4069 79.4666 14.896 80.3685 13.8779V7.2002C80.3685 6.59244 80.2601 6.19372 80.0472 6.00016C79.8304 5.80661 79.3466 5.67112 78.5878 5.5937V4.83496H82.6486V14.0521C82.6486 14.8456 82.7764 15.3605 83.0357 15.5966C83.2912 15.8328 83.8216 16.3437 84.6229 16.3437V17.1141L80.7402 17.2651L80.3724 16.9863V14.9889C79.9001 15.856 79.3698 16.4908 78.7775 16.8857C78.1891 17.2806 77.4652 17.4818 76.6136 17.4818H76.6097Z" fill="black"/>
<path d="M91.5381 16.3435C92.2968 16.3164 92.6762 16.0725 92.6762 15.6118C92.6762 15.2983 92.502 14.9383 92.1575 14.5241L90.3226 12.2749L88.4528 14.3731C87.9535 14.9228 87.7057 15.3602 87.7057 15.6893C87.7057 16.1035 88.1354 16.3202 88.9948 16.3473V17.1177H84.4695V16.3473C84.814 16.3125 85.1469 16.1538 85.4682 15.8712C85.7895 15.5886 86.3431 15.0079 87.1367 14.1331L89.6026 11.3885L86.7186 7.8464C86.0179 6.97153 85.5263 6.38699 85.2437 6.10053C84.9611 5.81407 84.694 5.65536 84.4424 5.62052V4.83468H89.9045V5.62052C89.1458 5.64761 88.7664 5.88762 88.7664 6.34054C88.7664 6.6541 88.9406 7.01411 89.2851 7.42832L91.12 9.67743L93.0169 7.57929C93.5124 7.0296 93.764 6.59216 93.764 6.26312C93.764 5.85665 93.3343 5.64374 92.4749 5.61664V4.83081H97.0002V5.61664C96.6557 5.65148 96.3189 5.8102 95.9937 6.08892C95.6686 6.37151 95.115 6.9483 94.3292 7.81543L91.8517 10.5833L94.7202 14.0982C95.4131 14.9576 95.9008 15.5383 96.195 15.8364C96.4854 16.1344 96.7525 16.3009 96.9964 16.3357V17.1061H91.5342V16.3357L91.5381 16.3435Z" fill="black"/>
<path d="M13.0001 16.5296L7.28248 15.527L10.3871 3.53819L2.4707 1.49812L2.85781 0L12.2762 2.42331L9.20255 14.2921L13.2672 15.0044L13.0001 16.5296Z" fill="black"/>
<path d="M3.10956 12.7979C2.63341 12.7979 2.07598 12.674 1.43724 12.3295C-0.738316 11.1604 0.171393 7.56027 0.283655 7.15381L1.7779 7.56027L1.03078 7.35511L1.7779 7.5564C1.53015 8.46611 1.30563 10.4984 2.16888 10.963C3.02439 11.4236 3.45022 11.203 3.58958 11.1294C4.59993 10.6068 5.06834 8.4816 5.1535 7.77706L6.69033 7.959C6.64775 8.31901 6.22192 11.5049 4.30573 12.5037C4.00378 12.6585 3.60119 12.794 3.10956 12.794V12.7979Z" fill="black"/>
<path d="M16.0963 13.6997C15.6202 13.6997 15.0627 13.5759 14.424 13.2313C12.2484 12.0623 13.162 8.46213 13.2704 8.05566L14.7647 8.46213L14.0175 8.25696L14.7647 8.45826C14.5169 9.36797 14.2924 11.4003 15.1556 11.8648C16.0111 12.3255 16.437 12.1048 16.5763 12.0313C17.5867 11.5087 18.0551 9.38345 18.1403 8.67891L19.6771 8.86085C19.6345 9.22087 19.2087 12.4068 17.2925 13.4055C16.9905 13.5604 16.5879 13.6959 16.0963 13.6959V13.6997Z" fill="black"/>
<path d="M9.45865 22.0148C4.83655 22.0148 2.14613 19.3089 2.10742 19.2664L3.21843 18.1902C3.41973 18.3954 8.27409 23.1994 16.4576 18.2908L17.255 19.6186C14.2743 21.4071 11.6497 22.0148 9.45865 22.0148Z" fill="black"/>
</svg>
